<svg xmlns="http://www.w3.org/2000/svg" version="1.1" xmlns:xlink="http://www.w3.org/1999/xlink" xmlns:svgjs="http://svgjs.dev/svgjs" width="1000" height="1000" viewBox="0 0 1000 1000"><rect width="1000" height="1000" fill="#ffffff"></rect><g transform="matrix(0.7,0,0,0.7,150.07466666666664,383.6859516620851)"><svg viewBox="0 0 375 125" data-background-color="#0080ff" preserveAspectRatio="xMidYMid meet" height="333" width="1000" xmlns="http://www.w3.org/2000/svg" xmlns:xlink="http://www.w3.org/1999/xlink"><defs></defs><g id="tight-bounds" transform="matrix(1,0,0,1,-0.03976036071776434,-0.12652920532229928)"><svg viewBox="0 0 375.07952880859375 125.25304412841797" height="125.25304412841797" width="375.07952880859375"><g><svg></svg></g><g><svg viewBox="0 0 375.07952880859375 125.25304412841797" height="125.25304412841797" width="375.07952880859375"><g transform="matrix(1,0,0,1,-10.220239639282227,-64.52294158935547)"><path d="M10.22 182.677v-118.154h375.08v118.154l-172.203 0v-3.978h168.224v-110.198h-367.122v110.198h19.245l0 3.978z" fill="#010c80" data-fill-palette-color="tertiary"></path><path d="M52.33 182.158h-2.994v-1.604h4.865v8.821h-0.802l-0.695-1.711c-0.374 0.642-0.864 1.153-1.47 1.535-0.606 0.385-1.265 0.577-1.978 0.577v0c-2.584 0-3.876-1.247-3.876-3.742v0-10.692c0-1.194 0.365-2.117 1.096-2.769 0.731-0.649 1.827-0.973 3.288-0.973 1.461 0 2.566 0.324 3.314 0.973 0.748 0.652 1.123 1.575 1.123 2.769v0 1.47h-1.871v-1.47c0-1.426-0.846-2.138-2.54-2.139-1.693 0-2.539 0.713-2.539 2.139v0 10.692c0 0.677 0.143 1.203 0.428 1.577 0.285 0.374 0.807 0.561 1.566 0.561 0.756 0 1.459-0.303 2.112-0.909 0.649-0.606 0.973-1.194 0.973-1.764v0zM67.432 175.342v14.033h-0.802l-0.695-1.711c-0.374 0.642-0.864 1.153-1.47 1.535-0.606 0.385-1.274 0.577-2.005 0.577v0c-2.566 0-3.849-1.247-3.849-3.742v0-2.673c0-2.495 1.283-3.742 3.849-3.742v0h3.101v-4.384c0-0.642-0.205-1.14-0.615-1.497-0.41-0.356-1.016-0.535-1.817-0.535v0c-1.586 0-2.379 0.677-2.379 2.032v0 1.577h-1.871v-1.47c0-1.194 0.353-2.117 1.058-2.769 0.702-0.649 1.766-0.973 3.192-0.973 1.426 0 2.5 0.324 3.223 0.973 0.72 0.652 1.08 1.575 1.08 2.769zM65.561 185.579v-4.357h-3.101c-0.748 0-1.265 0.187-1.55 0.562-0.285 0.374-0.428 0.9-0.428 1.577v0 2.673c0 0.677 0.143 1.203 0.428 1.577 0.285 0.374 0.802 0.561 1.55 0.561 0.748 0 1.443-0.29 2.085-0.871 0.642-0.577 0.98-1.151 1.016-1.722zM74.382 175.796v13.579h-1.871v-17.374h0.802l0.668 1.71c0.374-0.642 0.864-1.155 1.47-1.539 0.606-0.381 1.265-0.572 1.978-0.572v0c1.8 0 2.949 0.65 3.448 1.951v0c0.855-1.301 1.978-1.951 3.368-1.951v0c2.513 0 3.769 1.247 3.769 3.742v0 14.033h-1.871v-14.033c0-1.426-0.642-2.138-1.924-2.139v0c-0.748 0-1.438 0.303-2.069 0.909-0.634 0.606-0.952 1.194-0.952 1.764v0 13.499h-1.871v-14.033c0-1.426-0.642-2.138-1.925-2.139v0c-0.748 0-1.44 0.289-2.074 0.866-0.631 0.581-0.946 1.157-0.946 1.727zM94.964 172.001v17.374h-1.871v-17.374zM102.181 175.876v13.499h-1.871v-17.374h0.802l0.668 1.737c0.855-1.426 2.04-2.138 3.555-2.138v0c2.62 0 3.929 1.247 3.929 3.742v0 14.033h-1.871v-14.033c0-0.677-0.148-1.203-0.443-1.577-0.292-0.374-0.83-0.561-1.615-0.562-0.784 0-1.506 0.303-2.165 0.909-0.659 0.606-0.989 1.194-0.989 1.764zM120.892 182.158h-2.994v-1.604h4.865v5.48c0 1.194-0.365 2.117-1.096 2.769-0.731 0.649-1.827 0.973-3.288 0.973-1.461 0-2.566-0.324-3.314-0.973-0.748-0.652-1.123-1.575-1.123-2.769v0-10.692c0-1.194 0.365-2.117 1.096-2.769 0.731-0.649 1.827-0.973 3.288-0.973 1.461 0 2.566 0.324 3.314 0.973 0.748 0.652 1.123 1.575 1.123 2.769v0 1.47h-1.871v-1.47c0-1.426-0.846-2.138-2.539-2.139-1.693 0-2.539 0.713-2.54 2.139v0 10.692c0 1.426 0.846 2.138 2.54 2.138 1.693 0 2.539-0.713 2.539-2.138v0zM142.543 175.342v0 10.692c0 1.194-0.378 2.117-1.133 2.769-0.759 0.649-1.891 0.973-3.395 0.973-1.508 0-2.644-0.324-3.411-0.973-0.766-0.652-1.149-1.575-1.149-2.769v0-10.692c0-1.194 0.38-2.117 1.139-2.769 0.756-0.649 1.885-0.973 3.389-0.973 1.508 0 2.644 0.324 3.411 0.973 0.766 0.652 1.149 1.575 1.149 2.769zM140.672 186.034v0-10.692c0-1.426-0.891-2.138-2.673-2.139-1.782 0-2.673 0.713-2.673 2.139v0 10.692c0 1.426 0.891 2.138 2.673 2.138 1.782 0 2.673-0.713 2.673-2.138zM149.359 175.876v13.499h-1.871v-17.374h0.802l0.668 1.737c0.855-1.426 2.04-2.138 3.555-2.138v0c2.62 0 3.929 1.247 3.93 3.742v0 14.033h-1.871v-14.033c0-0.677-0.146-1.203-0.439-1.577-0.296-0.374-0.836-0.561-1.62-0.562-0.784 0-1.506 0.303-2.165 0.909-0.659 0.606-0.989 1.194-0.989 1.764zM168.284 189.375h-6.763v-17.374h1.871v15.77h4.892zM173.363 172.001v17.374h-1.871v-17.374zM180.58 175.876v13.499h-1.871v-17.374h0.802l0.668 1.737c0.855-1.426 2.04-2.138 3.555-2.138v0c2.62 0 3.929 1.247 3.929 3.742v0 14.033h-1.871v-14.033c0-0.677-0.148-1.203-0.444-1.577-0.292-0.374-0.83-0.561-1.614-0.562-0.784 0-1.506 0.303-2.165 0.909-0.659 0.606-0.989 1.194-0.989 1.764zM199.291 186.034v0-1.47h1.871v1.47c0 1.194-0.365 2.117-1.096 2.769-0.731 0.649-1.827 0.973-3.288 0.973-1.461 0-2.566-0.324-3.314-0.973-0.748-0.652-1.123-1.575-1.123-2.769v0-10.692c0-1.194 0.365-2.117 1.096-2.769 0.731-0.649 1.827-0.973 3.288-0.973 1.461 0 2.566 0.324 3.314 0.973 0.748 0.652 1.123 1.575 1.123 2.769v0 5.88h-6.95v4.812c0 1.426 0.846 2.138 2.539 2.138 1.693 0 2.539-0.713 2.54-2.138zM194.212 175.342v0 4.277h5.079v-4.277c0-1.426-0.846-2.138-2.54-2.139-1.693 0-2.539 0.713-2.539 2.139z" fill="#000000" data-fill-palette-color="secondary"></path></g><g transform="matrix(1,0,0,1,29.331764404296905,40.56787045813768)"><svg viewBox="0 0 316.41599999999994 44.1173032121426" height="44.1173032121426" width="316.41599999999994"><g><svg viewBox="0 0 316.41599999999994 44.1173032121426" height="44.1173032121426" width="316.41599999999994"><g><svg viewBox="0 0 316.41599999999994 44.1173032121426" height="44.1173032121426" width="316.41599999999994"><g><svg viewBox="0 0 316.41599999999994 44.1173032121426" height="44.1173032121426" width="316.41599999999994"><g><svg viewBox="0 0 316.41599999999994 44.1173032121426" height="44.1173032121426" width="316.41599999999994"><g><svg viewBox="0 0 316.41599999999994 44.1173032121426" height="44.1173032121426" width="316.41599999999994"><g transform="matrix(1,0,0,1,0,0)"><svg width="316.41599999999994" viewBox="4.75 -29.5 283.2699890136719 39.5" height="44.1173032121426" data-palette-color="#010c80"><path d="M11.95 0L11.95 0 4.75 0 4.75-29 10.25-29Q16.15-29 19.18-26.95 22.2-24.9 22.2-21.35L22.2-21.35Q22.2-17.1 18.45-15.2L18.45-15.2Q21.2-14.25 22.55-12.38 23.9-10.5 23.9-8.05L23.9-8.05Q23.9-4.45 20.93-2.23 17.95 0 11.95 0ZM6.25-1.5L11.95-1.5Q16.35-1.5 19.38-3.1 22.4-4.7 22.4-8.05L22.4-8.05Q22.4-9.6 21.25-11.43 20.1-13.25 17.7-14.1L17.7-14.1 15.1-15 17.5-16.25Q18.75-16.9 19.73-18.23 20.7-19.55 20.7-21.35L20.7-21.35Q20.7-24.5 17.7-26 14.7-27.5 10.25-27.5L10.25-27.5 6.25-27.5 6.25-1.5ZM33.05-1.5L48.25-1.5 48.25 0 31.55 0 31.55-29 33.05-29 33.05-1.5ZM53.5-29L55-29 55-14.5Q55-7.05 57.37-4.03 59.75-1 63.9-1 68.05-1 70.42-4.03 72.8-7.05 72.8-14.5L72.8-14.5 72.8-29 74.3-29 74.3-14.5Q74.3 0.5 63.9 0.5 53.5 0.5 53.5-14.5L53.5-14.5 53.5-29ZM101.59-3.95L102.69-2.95Q99.94 0.5 93.69 0.5 87.44 0.5 84.74-3.05 82.04-6.6 82.04-14.5 82.04-22.4 84.74-25.95 87.44-29.5 93.69-29.5L93.69-29.5Q100.94-29.5 103.54-24.75L103.54-24.75 91.29-14.5 88.94-14.5 101.59-25.05Q99.39-28 93.69-28L93.69-28Q91.19-28 89.49-27.48 87.79-26.95 86.37-25.53 84.94-24.1 84.24-21.38 83.54-18.65 83.54-14.5 83.54-10.35 84.24-7.63 84.94-4.9 86.37-3.48 87.79-2.05 89.49-1.53 91.19-1 93.69-1L93.69-1Q99.39-1 101.59-3.95L101.59-3.95ZM128.09 0L128.09-1.5 144.39-1.5 134.14-25.65 123.24 0 121.64 0 134.14-29.5 146.64 0 128.09 0ZM153.84 0L152.34 0 152.34-29 153.84-29 170.14-2.75 170.14-29 171.64-29 171.64 0 170.14 0 153.84-26.3 153.84 0ZM196.43-29L188.73-15.65 197.73 0 195.98 0 187.83-14.1 179.68 0 177.93 0 186.93-15.65 179.23-29 180.98-29 187.83-17.15 194.68-29 196.43-29ZM204.03 0L204.03-29 205.53-29 205.53 0 204.03 0ZM233.33-3.95L234.43-2.95Q231.68 0.5 225.43 0.5 219.18 0.5 216.48-3.05 213.78-6.6 213.78-14.5 213.78-22.4 216.48-25.95 219.18-29.5 225.43-29.5L225.43-29.5Q232.68-29.5 235.28-24.75L235.28-24.75 223.03-14.5 220.68-14.5 233.33-25.05Q231.13-28 225.43-28L225.43-28Q222.93-28 221.23-27.48 219.53-26.95 218.1-25.53 216.68-24.1 215.98-21.38 215.28-18.65 215.28-14.5 215.28-10.35 215.98-7.63 216.68-4.9 218.1-3.48 219.53-2.05 221.23-1.53 222.93-1 225.43-1L225.43-1Q231.13-1 233.33-3.95L233.33-3.95ZM238.68-29L261.18-29 261.18-27.5 250.68-27.5 250.68 0 249.18 0 249.18-27.5 238.68-27.5 238.68-29ZM268.67-27.5L268.67-29 288.02-29 276.27-1.25 276.27 10 274.77 10 274.77-1.25 263.02-29 264.62-29 275.52-3.35 285.77-27.5 268.67-27.5Z" opacity="1" transform="matrix(1,0,0,1,0,0)" fill="#000000" class="undefined-text-0" data-fill-palette-color="primary" id="text-0"></path></svg></g></svg></g></svg></g></svg></g></svg></g></svg></g></svg></g></svg></g></svg><rect width="375.07952880859375" height="125.25304412841797" fill="none" stroke="none" visibility="hidden"></rect></g></svg></g></svg>